<?xml version="1.0" standalone="no"?>
<!DOCTYPE svg PUBLIC "-//W3C//DTD SVG 20010904//EN"
 "http://www.w3.org/TR/2001/REC-SVG-20010904/DTD/svg10.dtd">
<svg version="1.0" xmlns="http://www.w3.org/2000/svg"
 width="225.000000pt" height="225.000000pt" viewBox="0 0 225.000000 225.000000"
 preserveAspectRatio="xMidYMid meet">
<metadata>
Created by potrace 1.14, written by Peter Selinger 2001-2017
</metadata>
<g transform="translate(0.000000,225.000000) scale(0.100000,-0.100000)"
fill="#000000" stroke="none">
<path d="M995 1976 c-83 -16 -152 -39 -217 -72 -54 -27 -62 -37 -53 -64 8 -27
31 -25 101 6 241 107 536 80 751 -67 170 -116 294 -311 328 -514 12 -68 6
-231 -10 -300 -65 -282 -287 -505 -574 -576 -121 -30 -323 -23 -429 14 -231
82 -405 261 -488 502 -26 73 -28 92 -29 230 0 171 10 217 77 352 35 70 39 85
28 98 -7 9 -23 15 -34 13 -28 -4 -99 -145 -127 -253 -30 -113 -30 -298 0 -410
89 -331 348 -572 676 -630 194 -34 366 -7 545 86 206 107 360 304 421 539 31
117 31 309 0 425 -96 361 -416 614 -796 630 -62 3 -127 -1 -170 -9z"/>
<path d="M558 1755 c-32 -18 -72 -80 -64 -100 10 -27 51 -16 90 24 58 59 40
112 -26 76z"/>
<path d="M982 1650 c-33 -14 -42 -49 -42 -174 0 -74 -4 -116 -12 -124 -8 -8
-52 -12 -134 -12 -164 0 -164 0 -171 -141 -7 -133 2 -214 28 -240 17 -17 34
-19 143 -19 87 0 127 -4 134 -12 6 -7 12 -71 14 -141 3 -114 5 -130 22 -143
15 -11 58 -14 181 -14 205 0 195 -8 195 156 0 65 4 125 9 132 6 10 44 14 135
16 177 4 171 -3 171 206 0 204 8 194 -163 198 -70 2 -133 8 -139 14 -9 7 -13
47 -13 133 0 174 5 169 -187 172 -81 1 -158 -2 -171 -7z m285 -205 c4 -194
-13 -175 158 -175 92 0 146 -4 151 -11 7 -12 11 -227 4 -239 -3 -4 -64 -10
-137 -11 -171 -5 -165 0 -172 -160 -5 -104 -9 -123 -25 -135 -25 -18 -206 -20
-224 -2 -8 8 -12 55 -12 144 0 95 -4 135 -12 141 -7 4 -76 10 -153 13 l-140 5
-3 122 c-3 145 -20 132 173 136 l130 2 3 140 c1 77 4 146 7 153 3 9 35 12 127
10 l123 -3 2 -130z"/>
</g>
</svg>
